<svg width="20" height="27" viewBox="0 0 20 27" fill="none" xmlns="http://www.w3.org/2000/svg">
<rect width="20" height="26.6667" fill="black" fill-opacity="0"/>
<rect width="20" height="26.6667" fill="black" fill-opacity="0"/>
<rect width="20" height="26.6667" fill="black" fill-opacity="0"/>
<path d="M1.46793 7.41792L0.0135701 23.0228C-0.0712676 23.9574 0.243844 24.8802 0.898307 25.5664C1.16494 25.8503 1.48005 26.0869 1.8194 26.2644V6.82638C1.62549 6.95651 1.49217 7.16947 1.46793 7.41792Z" fill="#019795"/>
<path d="M2.31624 6.66077C2.13445 6.66077 1.95265 6.71992 1.81934 6.81457V26.2644C2.30412 26.5129 2.84951 26.6549 3.41913 26.6549H3.63729V6.66077H2.31624Z" fill="#86A138"/>
<path d="M4.87354 5.00444V6.67258H3.63733V26.6667H5.45528V2.69743C5.09169 3.38362 4.87354 4.16445 4.87354 5.00444Z" fill="#D5D53F"/>
<path d="M6.58245 6.66075V5.00444C6.58245 4.24726 6.83697 3.56108 7.27327 3.00503V0.769002C6.50973 1.24223 5.87951 1.90476 5.45532 2.69743V26.6548H7.27327V6.66075H6.58245Z" fill="#EAC133"/>
<path d="M9.09114 1.78644V0.0828047C8.43668 0.201113 7.81858 0.437729 7.27319 0.768992V2.99319C7.72162 2.41348 8.35184 1.98757 9.09114 1.78644Z" fill="#EC9C45"/>
<path d="M9.09114 6.66077H7.27319V26.6549H9.09114V6.66077Z" fill="#EC9C45"/>
<path d="M10.9091 6.66077H9.09119V26.6549H10.9091V6.66077Z" fill="#DC1019"/>
<path d="M10.0002 1.66815C10.3153 1.66815 10.6183 1.71547 10.9091 1.78645V0.0828157C10.6061 0.0354924 10.3032 0 10.0002 0C9.68505 0 9.38206 0.0236616 9.09119 0.0828157V1.78645C9.38206 1.70364 9.68505 1.66815 10.0002 1.66815Z" fill="#DC1019"/>
<path d="M12.412 2.63826C12.5211 2.74474 12.6302 2.86305 12.7271 2.99319V0.768992C12.1696 0.425898 11.5515 0.201113 10.9092 0.0828047V1.78644C11.4788 1.94024 11.9999 2.23601 12.412 2.63826Z" fill="#E483AC"/>
<path d="M12.7271 6.66077H10.9092V26.6549H12.7271V6.66077Z" fill="#E483AC"/>
<path d="M13.6239 1.46702C13.3573 1.20674 13.0543 0.970126 12.7271 0.769002V2.9932C13.1755 3.57291 13.4179 4.27092 13.4179 5.00444V6.67258H12.7271V26.6667H14.545V2.68559C14.3026 2.23602 13.9996 1.82194 13.6239 1.46702Z" fill="#A44B8D"/>
<path d="M15.1147 6.66075V5.00444C15.1147 4.18811 14.9208 3.39545 14.545 2.69743V26.6667H16.363V6.67258H15.1147V6.66075Z" fill="#C9C9E3"/>
<path d="M17.6841 6.66077H16.363V26.6549H16.5812C17.1387 26.6549 17.6962 26.5129 18.181 26.2644V6.8264C18.0356 6.71992 17.8659 6.66077 17.6841 6.66077Z" fill="#0073B2"/>
<path d="M18.5324 7.41791C18.5081 7.16946 18.3748 6.9565 18.1809 6.81453V26.2644C18.5203 26.0869 18.8354 25.8503 19.102 25.5664C19.7443 24.8802 20.0716 23.9456 19.9867 23.0228L18.5324 7.41791Z" fill="#A6C9E7"/>
</svg>
