<svg width="20" height="11" viewBox="0 0 20 11" fill="none" xmlns="http://www.w3.org/2000/svg">
<rect width="20.0004" height="10.9411" fill="black" fill-opacity="0"/>
<path d="M19.1207 2.51228C18.5806 1.92717 17.8113 1.60393 16.9562 1.60393H14.8981V0.490998C14.8981 0.220949 14.6771 0 14.4071 0H4.60349C4.33344 0 4.11249 0.220949 4.11249 0.490998V2.20131H2.20169C1.93164 2.20131 1.71069 2.42226 1.71069 2.69231C1.71069 2.96236 1.93164 3.18331 2.20169 3.18331H4.59122C4.59531 3.18331 4.5994 3.18331 4.60349 3.18331C4.60349 3.18331 4.60349 3.18331 4.60758 3.18331C4.87763 3.18331 5.09858 2.96236 5.09858 2.69231V0.981997H13.9202V2.09493V8.6784H9.29662C9.27616 8.6784 9.2557 8.6784 9.23524 8.68249C8.98974 8.07692 8.39645 7.6473 7.70497 7.6473C7.00938 7.6473 6.41609 8.08102 6.17469 8.69067C6.13786 8.68249 6.10513 8.6784 6.0683 8.6784H5.09858V6.96399C5.09858 6.69394 4.87763 6.473 4.60758 6.473C4.5994 6.473 4.59122 6.473 4.58303 6.473C4.57485 6.473 4.57076 6.473 4.56258 6.473H2.20169C1.93164 6.473 1.71069 6.69394 1.71069 6.96399C1.71069 7.23404 1.93164 7.45499 2.20169 7.45499H4.11249V9.1653C4.11249 9.43535 4.33344 9.6563 4.60349 9.6563H6.06421C6.07649 9.6563 6.08467 9.6563 6.09695 9.6563C6.26061 10.3928 6.91937 10.9411 7.70497 10.9411C8.49056 10.9411 9.14523 10.3928 9.31298 9.6563H14.4112H15.1968C15.3645 10.3887 16.0192 10.9411 16.8048 10.9411C17.5904 10.9411 18.2451 10.3928 18.4128 9.6563H19.5094C19.7794 9.6563 20.0004 9.43535 20.0004 9.1653V5.08593C20.0004 4.02619 19.6935 3.13421 19.1207 2.51228ZM7.70497 9.96318C7.33672 9.96318 7.03803 9.66448 7.03803 9.29624C7.03803 8.92799 7.33672 8.6293 7.70497 8.6293C8.07321 8.6293 8.3719 8.92799 8.3719 9.29624C8.3719 9.66448 8.07321 9.96318 7.70497 9.96318ZM16.8048 9.96318C16.4366 9.96318 16.1379 9.66448 16.1379 9.29624C16.1379 8.92799 16.4366 8.6293 16.8048 8.6293C17.1731 8.6293 17.4717 8.92799 17.4717 9.29624C17.4677 9.66448 17.169 9.96318 16.8048 9.96318ZM19.0184 8.6784H18.331C18.0855 8.07692 17.4922 7.6473 16.8048 7.6473C16.1174 7.6473 15.5241 8.07283 15.2786 8.6784H14.9022V2.58592H16.9603C18.2492 2.58592 19.0184 3.52291 19.0184 5.09002V8.6784Z" fill="white"/>
<path d="M8.4329 5.74872C8.24059 5.94103 8.24059 6.25199 8.4329 6.4443C8.52701 6.53841 8.65385 6.58751 8.78069 6.58751C8.90753 6.58751 9.03028 6.53841 9.12848 6.4443L10.3928 5.17998L10.3969 5.17589C10.4051 5.16361 10.4173 5.15543 10.4255 5.14315C10.4296 5.13497 10.4337 5.13088 10.4378 5.1227C10.4419 5.11451 10.446 5.11042 10.4542 5.10224C10.4583 5.09405 10.4624 5.08587 10.4664 5.07769C10.4705 5.0695 10.4746 5.06541 10.4787 5.05723C10.4828 5.04905 10.4869 5.04086 10.491 5.03268C10.4951 5.0245 10.4992 5.0204 10.4992 5.01222C10.5033 5.00404 10.5033 4.99585 10.5074 4.98767C10.5115 4.97949 10.5115 4.9713 10.5155 4.96721C10.5196 4.95903 10.5196 4.95085 10.5196 4.94266C10.5196 4.93448 10.5237 4.9263 10.5237 4.91811C10.5237 4.90993 10.5278 4.90175 10.5278 4.88947C10.5278 4.88129 10.5319 4.8772 10.5319 4.86901C10.536 4.83628 10.536 4.80355 10.5319 4.77081C10.5319 4.76263 10.5319 4.75854 10.5278 4.75036C10.5278 4.74217 10.5237 4.73399 10.5237 4.72171C10.5237 4.71353 10.5196 4.70535 10.5196 4.69716C10.5196 4.68898 10.5155 4.6808 10.5155 4.67261C10.5115 4.66443 10.5115 4.65625 10.5074 4.65216C10.5033 4.64397 10.5033 4.63579 10.4992 4.62761C10.4951 4.61942 10.491 4.61533 10.491 4.60715C10.4869 4.59896 10.4828 4.59078 10.4787 4.5826C10.4746 4.57441 10.4705 4.57032 10.4664 4.56214C10.4624 4.55396 10.4583 4.54577 10.4542 4.53759C10.4501 4.52941 10.446 4.52531 10.4378 4.51713C10.4337 4.50895 10.4296 4.50486 10.4255 4.49667C10.4173 4.4844 10.4051 4.47621 10.3969 4.46394L10.3928 4.45985L9.18985 3.2569C8.99755 3.06459 8.68658 3.06459 8.49427 3.2569C8.30196 3.44921 8.30196 3.76017 8.49427 3.95248L8.85843 4.31664H0.490998C0.220949 4.31664 0 4.53759 0 4.80764C0 5.07769 0.220949 5.29864 0.490998 5.29864H8.85434L8.4329 5.74872Z" fill="white"/>
</svg>
