<svg width="24" height="25" viewBox="0 0 24 25" fill="none" xmlns="http://www.w3.org/2000/svg">
<g opacity="0.8">
<rect width="24" height="24.2115" fill="black" fill-opacity="0"/>
<rect width="24" height="24.2115" fill="black" fill-opacity="0"/>
<rect width="24" height="24.2115" fill="black" fill-opacity="0"/>
<rect width="24" height="24.2115" fill="black" fill-opacity="0"/>
<path d="M7.82984 10.1512C8.38671 10.1512 8.83865 9.69923 8.83865 9.14236V5.20799C8.83865 3.44913 10.2697 2.01762 12.029 2.01762C13.7879 2.01762 15.2194 3.44913 15.2194 5.20799V9.14236C15.2194 9.69923 15.6713 10.1512 16.2282 10.1512C16.7851 10.1512 17.237 9.69923 17.237 9.14236V5.20799C17.237 2.33641 14.9006 0 12.029 0C9.15794 0 6.82153 2.33641 6.82153 5.20799V9.14236C6.82103 9.69923 7.27298 10.1512 7.82984 10.1512Z" fill="#4E4E4E"/>
<path d="M23.6012 7.88434H18.2459V9.14233C18.2459 10.255 17.341 11.16 16.2283 11.16C15.116 11.16 14.2106 10.255 14.2106 9.14233V7.88434H9.84803V9.14233C9.84803 10.255 8.94313 11.16 7.83041 11.16C6.71769 11.16 5.81278 10.255 5.81278 9.14233V7.88434H0.398486C0.120053 7.88434 -0.051949 8.10375 0.0141282 8.37412L3.54346 22.7487C3.75682 23.5567 4.60675 24.2115 5.44255 24.2115H18.5571C19.3934 24.2115 20.2428 23.5562 20.4572 22.7487L23.986 8.37412C24.0516 8.10325 23.8801 7.88434 23.6012 7.88434Z" fill="#4E4E4E"/>
</g>
</svg>
