<svg width="20" height="27" viewBox="0 0 20 27" fill="none" xmlns="http://www.w3.org/2000/svg">
<rect width="20" height="25.8977" fill="black" fill-opacity="0" transform="translate(0 0.768982)"/>
<path d="M1.46793 7.4179L0.0135701 23.0227C-0.0712676 23.9574 0.243844 24.8802 0.898307 25.5664C1.16494 25.8503 1.48005 26.0869 1.8194 26.2644V6.82635C1.62549 6.95649 1.49217 7.16945 1.46793 7.4179Z" fill="#019795"/>
<path d="M2.3163 6.66077C2.13451 6.66077 1.95271 6.71992 1.8194 6.81457V26.2644C2.30418 26.5129 2.84957 26.6549 3.41919 26.6549H3.63735V6.66077H2.3163Z" fill="#86A138"/>
<path d="M4.87357 5.00446V6.6726H3.63736V26.6667H5.45531V2.69745C5.09172 3.38364 4.87357 4.16447 4.87357 5.00446Z" fill="#D5D53F"/>
<path d="M6.58242 6.66073V5.00442C6.58242 4.24724 6.83693 3.56106 7.27324 3.00501V0.768982C6.5097 1.24221 5.87948 1.90474 5.45529 2.69741V26.6548H7.27324V6.66073H6.58242Z" fill="#EAC133"/>
<path d="M9.09121 6.66077H7.27325V26.6549H9.09121V6.66077Z" fill="#EC9C45"/>
<path d="M10.9092 6.66077H9.09122V26.6549H10.9092V6.66077Z" fill="#DC1019"/>
<path d="M12.7271 6.66077H10.9091V26.6549H12.7271V6.66077Z" fill="#E483AC"/>
<path d="M13.624 1.467C13.3573 1.20672 13.0543 0.970106 12.7271 0.768982V2.99318C13.1755 3.57289 13.4179 4.2709 13.4179 5.00442V6.67256H12.7271V26.6666H14.5451V2.68557C14.3027 2.236 13.9997 1.82192 13.624 1.467Z" fill="#A44B8D"/>
<path d="M15.1147 6.66077V5.00446C15.1147 4.18813 14.9208 3.39547 14.5451 2.69745V26.6667H16.363V6.6726H15.1147V6.66077Z" fill="#C9C9E3"/>
<path d="M17.6841 6.66077H16.363V26.6549H16.5812C17.1387 26.6549 17.6962 26.5129 18.181 26.2644V6.8264C18.0355 6.71992 17.8658 6.66077 17.6841 6.66077Z" fill="#0073B2"/>
<path d="M18.5324 7.41789C18.5082 7.16944 18.3749 6.95648 18.181 6.81451V26.2644C18.5203 26.0869 18.8354 25.8503 19.1021 25.5664C19.7444 24.8802 20.0716 23.9455 19.9868 23.0227L18.5324 7.41789Z" fill="#A6C9E7"/>
</svg>
