<svg width="15" height="16" viewBox="0 0 15 16" fill="none" xmlns="http://www.w3.org/2000/svg">
<path d="M3.26936 16C2.39566 16 1.57426 15.6564 0.956486 15.0325C-0.318829 13.7446 -0.318829 11.6489 0.956486 10.361L8.29541 2.94953C9.1613 2.07504 10.5703 2.07504 11.4362 2.94953C12.3022 3.82402 12.3022 5.24696 11.4362 6.12146L6.03805 11.573C5.82358 11.7897 5.47578 11.7897 5.26128 11.573C5.04677 11.3564 5.04677 11.0052 5.26128 10.7886L10.6595 5.33697C11.0971 4.89503 11.0971 4.17592 10.6595 3.73398C10.4475 3.51987 10.1656 3.40198 9.86582 3.40198C9.56603 3.40198 9.28415 3.51987 9.07217 3.73398L1.73325 11.1455C0.886254 12.0008 0.886254 13.3927 1.73325 14.2481C2.14359 14.6624 2.68912 14.8906 3.26936 14.8906C3.8496 14.8906 4.39516 14.6624 4.80546 14.2481L12.3166 6.66261C12.9253 6.04798 13.2604 5.2308 13.2604 4.36156C13.2604 3.49232 12.9253 2.67514 12.3166 2.0605C11.0602 0.791659 9.01593 0.791696 7.75955 2.0605L2.18911 7.68599C1.97464 7.90261 1.62684 7.90261 1.41234 7.68599C1.19783 7.46936 1.19783 7.11817 1.41234 6.90154L6.98278 1.27602C8.66748 -0.425339 11.4087 -0.425339 13.0934 1.27602C13.9095 2.10018 14.359 3.196 14.359 4.36156C14.359 5.52712 13.9095 6.6229 13.0934 7.4471L5.58223 15.0325C4.96446 15.6564 4.14305 16 3.26936 16Z" fill="#58595B"/>
</svg>