<svg width="12" height="12" viewBox="0 0 12 12" fill="none" xmlns="http://www.w3.org/2000/svg">
<path fill-rule="evenodd" clip-rule="evenodd" d="M7.42618 6.00002L11.7046 1.72158C12.0985 1.32774 12.0985 0.689212 11.7046 0.295433C11.3108 -0.0984026 10.6723 -0.0984026 10.2785 0.295433L5.99998 4.57393L1.72148 0.295377C1.32765 -0.0984589 0.68917 -0.0984589 0.295334 0.295377C-0.0984448 0.689212 -0.0984448 1.32774 0.295334 1.72152L4.57383 5.99996L0.295334 10.2785C-0.0984448 10.6723 -0.0984448 11.3108 0.295334 11.7046C0.68917 12.0984 1.32765 12.0984 1.72148 11.7046L5.99998 7.42611L10.2785 11.7046C10.6723 12.0984 11.3108 12.0984 11.7046 11.7046C12.0985 11.3108 12.0985 10.6723 11.7046 10.2785L7.42618 6.00002Z" fill="#58595B"/>
</svg>
