<svg width="8" height="12" viewBox="0 0 8 12" fill="none" xmlns="http://www.w3.org/2000/svg">
<rect width="8" height="11.4545" fill="black" fill-opacity="0"/>
<rect width="8" height="11.4545" fill="black" fill-opacity="0"/>
<rect width="8" height="11.4545" fill="black" fill-opacity="0"/>
<path d="M4 0C1.7944 0 0 1.80651 0 4.02699C0 4.77722 0.206422 5.50937 0.597089 6.14456L3.77231 11.2959C3.83313 11.3946 3.94029 11.4545 4.05553 11.4545C4.05642 11.4545 4.05729 11.4545 4.05818 11.4545C4.17442 11.4536 4.2818 11.3918 4.34151 11.2914L7.4358 6.09015C7.80491 5.46838 8 4.75496 8 4.02699C8 1.80651 6.2056 0 4 0ZM6.86369 5.74557L4.05049 10.4743L1.16371 5.79094C0.838533 5.26225 0.662222 4.65229 0.662222 4.02699C0.662222 2.17659 2.162 0.66669 4 0.66669C5.838 0.66669 7.33556 2.17659 7.33556 4.02699C7.33556 4.63374 7.17087 5.2281 6.86369 5.74557Z" fill="white"/>
<rect width="4" height="4.02699" fill="black" fill-opacity="0" transform="translate(2 2.01349)"/>
<rect width="4" height="4.02699" fill="black" fill-opacity="0" transform="translate(2 2.01349)"/>
<path d="M4 2.01349C2.8972 2.01349 2 2.91674 2 4.02698C2 5.13013 2.8826 6.04048 4 6.04048C5.13118 6.04048 6 5.11801 6 4.02698C6 2.91674 5.1028 2.01349 4 2.01349ZM4 5.37379C3.26096 5.37379 2.66222 4.769 2.66222 4.02698C2.66222 3.28682 3.2648 2.68018 4 2.68018C4.7352 2.68018 5.33556 3.28682 5.33556 4.02698C5.33556 4.75817 4.75076 5.37379 4 5.37379Z" fill="white"/>
</svg>
