<svg width="14" height="14" viewBox="0 0 14 14" fill="none" xmlns="http://www.w3.org/2000/svg">
<path d="M11.2521 14.0001C10.6696 14.0001 9.96608 13.8541 9.1924 13.5621C7.49625 12.9227 5.65082 11.6588 3.99611 10.0041C2.34092 8.3489 1.07705 6.503 0.437107 4.80685C-0.144444 3.26467 -0.145857 1.99892 0.433811 1.41972C0.517159 1.33637 0.601919 1.2469 0.689505 1.15461C1.21832 0.598485 1.81588 -0.0273307 2.60792 0.000922767C3.15368 0.0235256 3.68249 0.362568 4.22402 1.03641C5.82411 3.0264 5.1027 3.73557 4.26781 4.55774L4.12042 4.70372C3.98387 4.84028 3.72582 5.47269 6.12642 7.87329C6.90999 8.65686 7.57818 9.2304 8.11217 9.57745C8.44839 9.79595 9.04972 10.1265 9.29647 9.87976L9.4448 9.73002C10.266 8.89701 10.9752 8.17796 12.9638 9.77664C13.6376 10.3182 13.9762 10.8465 13.9988 11.3932C14.0313 12.1848 13.4008 12.7838 12.8442 13.3121C12.7523 13.3997 12.6629 13.4844 12.5795 13.5673C12.2918 13.8555 11.8317 14.0001 11.2521 14.0001ZM2.55141 0.470873C1.9887 0.470873 1.4806 1.00581 1.0309 1.47905C0.940491 1.57417 0.852905 1.66647 0.766732 1.75264C0.334924 2.18398 0.378717 3.31741 0.877862 4.64109C1.49473 6.27603 2.72046 8.06259 4.3295 9.67163C5.93807 11.2797 7.72369 12.5055 9.3591 13.1219C10.6828 13.6219 11.8162 13.6643 12.2471 13.2335C12.3332 13.1473 12.4255 13.0597 12.5207 12.9698C13.0043 12.5102 13.5529 11.9894 13.5288 11.4116C13.5124 11.0146 13.2232 10.5875 12.6695 10.1425C11.0124 8.8099 10.549 9.28032 9.78055 10.0596L9.62986 10.2117C9.26256 10.5795 8.66594 10.498 7.85601 9.97159C7.29424 9.60618 6.60014 9.01191 5.79397 8.20527C3.80163 6.2134 3.16451 4.99426 3.78797 4.36939L3.93819 4.22106C4.7194 3.45256 5.19076 2.98873 3.85767 1.33072C3.41173 0.777424 2.9851 0.488296 2.58814 0.471344C2.5759 0.470873 2.56366 0.470873 2.55141 0.470873Z" fill="white"/>
</svg>
