<svg width="20" height="20" viewBox="0 0 20 20" fill="none" xmlns="http://www.w3.org/2000/svg">
<rect width="20" height="19.2308" fill="black" fill-opacity="0"/>
<path d="M9.96717 10.7925C12.9229 10.7925 15.3202 8.37201 15.3202 5.38795C15.3202 2.40388 12.9228 0 9.96717 0C7.01152 0 4.61414 2.42044 4.61414 5.38795C4.61414 8.35546 7.01149 10.7925 9.96717 10.7925ZM9.96717 1.40916C12.1346 1.40916 13.9081 3.1996 13.9081 5.38795C13.9081 7.5763 12.1346 9.3667 9.96717 9.3667C7.7997 9.3667 6.02627 7.57626 6.02627 5.38791C6.02627 3.19956 7.79966 1.40916 9.96717 1.40916Z" fill="#4E4E4E"/>
<path d="M0.706068 19.2307H19.2939C19.688 19.2307 20 18.9157 20 18.5178C20 14.7877 16.9951 11.7373 13.2841 11.7373H6.71594C3.02135 11.7373 0 14.7711 0 18.5178C0 18.9157 0.311982 19.2307 0.706068 19.2307ZM6.71594 13.163H13.2841C15.977 13.163 18.1937 15.1856 18.5386 17.8049H1.46141C1.80622 15.2022 4.023 13.163 6.71594 13.163Z" fill="#4E4E4E"/>
</svg>
