<svg width="14" height="14" viewBox="0 0 14 14" fill="none" xmlns="http://www.w3.org/2000/svg">
<rect width="14" height="14" fill="black" fill-opacity="0"/>
<path d="M10.312 9.05078C9.60238 10.1952 8.35534 10.8965 7.00007 10.8965C5.64478 10.8965 4.39777 10.1952 3.68814 9.05078H2.75293C3.51721 10.6272 5.13375 11.7168 7.00007 11.7168C8.86639 11.7168 10.483 10.6272 11.2472 9.05078H10.312Z" fill="white"/>
<path d="M7.00007 2.2832C5.13375 2.2832 3.51721 3.3728 2.75293 4.94922H3.68814C4.39777 3.80477 5.64478 3.10352 7.00007 3.10352C8.35534 3.10352 9.60238 3.80477 10.312 4.94922H11.2472C10.483 3.3728 8.86639 2.2832 7.00007 2.2832Z" fill="white"/>
<path d="M11.5536 5.76953H2.44634C2.34019 6.162 2.2832 6.57442 2.2832 7C2.2832 7.42558 2.34019 7.838 2.44634 8.23047H11.5536C11.6598 7.838 11.7168 7.42558 11.7168 7C11.7168 6.57442 11.6598 6.162 11.5536 5.76953ZM10.5547 7.41016H3.44531V6.58984H10.5547V7.41016Z" fill="white"/>
<path d="M14 7C14 6.63873 13.8846 6.29595 13.6666 6.00917C13.5263 5.82403 13.4795 5.58898 13.5382 5.36482C13.63 5.01583 13.6054 4.65497 13.4672 4.32124C13.3289 3.98748 13.0911 3.71495 12.7799 3.53339C12.5795 3.41605 12.4463 3.21677 12.4147 2.98722C12.366 2.6297 12.2052 2.30571 11.9498 2.05023C11.6943 1.79479 11.3704 1.63401 11.0134 1.58536C10.7833 1.55367 10.584 1.42054 10.4669 1.2206C10.2851 0.908906 10.0126 0.67107 9.67881 0.53282C9.47857 0.449887 9.26778 0.407832 9.05231 0.407832C8.91182 0.407832 8.77149 0.426016 8.63581 0.461727C8.57369 0.477969 8.50965 0.486227 8.44547 0.486227C8.28237 0.486227 8.12093 0.431977 7.9914 0.333813C7.70407 0.115418 7.36129 0 7 0C6.63876 0 6.29598 0.115418 6.00914 0.333402C5.87915 0.431949 5.71771 0.486199 5.55455 0.486199C5.49043 0.486199 5.42639 0.477941 5.36484 0.461863C5.22856 0.425988 5.08823 0.407805 4.94774 0.407805C4.73227 0.407805 4.52148 0.449859 4.32122 0.532793C3.98746 0.67107 3.71492 0.908879 3.53336 1.22005C3.41603 1.42051 3.21675 1.55364 2.98722 1.58525C2.62968 1.63404 2.30568 1.79482 2.05023 2.05023C1.79479 2.30571 1.63401 2.6297 1.58539 2.98665C1.55367 3.21675 1.42054 3.41603 1.2206 3.53306C0.908906 3.71489 0.67107 3.98743 0.532848 4.32119C0.394598 4.65492 0.370043 5.01577 0.461699 5.36421C0.520461 5.58895 0.473703 5.82397 0.333758 6.00863C0.115418 6.29595 0 6.63873 0 7C0 7.36127 0.115418 7.70405 0.333402 7.99086C0.473703 8.176 0.520461 8.41102 0.461836 8.63518C0.370043 8.98417 0.394598 9.34503 0.53282 9.67873C0.67107 10.0126 0.908906 10.2851 1.22005 10.4666C1.42051 10.5839 1.55367 10.7832 1.58528 11.0127C1.63401 11.3703 1.79479 11.6943 2.05023 11.9497C2.30571 12.2052 2.6297 12.366 2.98665 12.4146C3.21675 12.4463 3.41603 12.5794 3.53306 12.7794C3.71489 13.0911 3.98743 13.3289 4.32119 13.4672C4.52145 13.5501 4.73227 13.5922 4.94777 13.5922C5.08823 13.5922 5.22854 13.574 5.36421 13.5383C5.42637 13.522 5.49041 13.5138 5.55455 13.5138C5.71766 13.5138 5.8791 13.568 6.0086 13.6662C6.29593 13.8846 6.63873 14 7 14C7.36129 14 7.70407 13.8846 7.99086 13.6666C8.12088 13.5681 8.28228 13.5138 8.44539 13.5138C8.50954 13.5138 8.57358 13.5221 8.63518 13.5382C8.77144 13.574 8.91174 13.5922 9.0522 13.5922C9.2677 13.5922 9.47852 13.5501 9.67876 13.4672C10.0125 13.3289 10.2851 13.0911 10.4666 12.78C10.5839 12.5795 10.7832 12.4464 11.0128 12.4147C11.3703 12.366 11.6943 12.2052 11.9498 11.9498C12.2052 11.6943 12.366 11.3704 12.4146 11.0134C12.4463 10.7833 12.5795 10.584 12.7794 10.467C13.0911 10.2851 13.3289 10.0126 13.4672 9.67884C13.6054 9.34514 13.63 8.98428 13.5383 8.63579C13.4796 8.41107 13.5263 8.17603 13.6662 7.99138C13.8846 7.70405 14 7.36127 14 7ZM7 12.5371C3.94682 12.5371 1.46289 10.0532 1.46289 7C1.46289 3.94682 3.94682 1.46289 7 1.46289C10.0532 1.46289 12.5371 3.94682 12.5371 7C12.5371 10.0532 10.0532 12.5371 7 12.5371Z" fill="white"/>
</svg>
